<svg width="40" height="40" viewBox="0 0 400 400" fill="none" xmlns="http://www.w3.org/2000/svg">
  <path d="M153.62 301.59c94.34 0 145.94-78.16 145.94-145.94 0-2.22-.05-4.43-.15-6.63 10.01-7.22 18.71-16.24 25.6-26.52-9.19 4.08-19.07 6.83-29.43 8.06 10.58-6.34 18.7-16.4 22.52-28.38-9.9 5.88-20.87 10.14-32.54 12.43-9.34-9.96-22.66-16.19-37.4-16.19-28.3 0-51.24 22.94-51.24 51.24 0 4.02.45 7.93 1.32 11.69-42.59-2.14-80.35-22.54-105.63-53.54-4.42 7.58-6.95 16.39-6.95 25.76 0 17.78 9.04 33.46 22.78 42.64-8.39-.27-16.29-2.57-23.2-6.4v.65c0 24.83 17.67 45.54 41.11 50.24-4.3 1.17-8.83 1.8-13.51 1.8-3.3 0-6.51-.32-9.63-.92 6.52 20.36 25.43 35.18 47.84 35.6-17.53 13.74-39.61 21.93-63.61 21.93-4.13 0-8.21-.24-12.21-.71 22.66 14.53 49.56 23 78.48 23" fill="#E11D48"/>

  <g stroke="#F43F5E" stroke-width="12" stroke-linecap="round">
    <path d="M225 35L265 35M245 15L245 55" stroke-opacity="0.9"/>
    <path d="M285 55L325 55M305 35L305 75" stroke-opacity="0.9"/>
  </g>
</svg>
